<svg width="320" height="320" viewBox="0 0 320 320" fill="none" xmlns="http://www.w3.org/2000/svg">
<path d="M0 0H320V320H0V0Z" fill="#C4C4C4" fill-opacity="0.11"/>
<path d="M241.429 111.058C249.216 125.816 255 142.098 255 160C255 212.467 212.467 255 160 255C107.533 255 65 212.467 65 160C65 107.533 107.533 65 160 65C178.227 65 195.995 70.5779 210.458 79.4779C210.458 79.4779 232.883 94.8604 241.429 111.058Z" fill="#2E7D32"/>
<path d="M255 160C255 142.098 249.216 125.816 241.429 111.058C232.883 94.8604 210.458 79.4779 210.458 79.4779C195.995 70.5779 178.227 65 160 65V255C212.467 255 255 212.467 255 160Z" fill="#004D40"/>
<path d="M215.165 132.621C219.218 141.265 221.569 149.794 221.569 160C221.569 194.003 194.003 221.569 160 221.569C125.996 221.569 98.4311 194.003 98.4311 160C98.4311 125.997 125.997 98.4311 160 98.4311C170.741 98.4311 179.99 100.72 188.78 105.555C188.78 105.555 207.483 116.24 215.165 132.621V132.621Z" fill="#FFF4F4"/>
<path d="M221.569 160C221.569 149.793 219.218 141.265 215.165 132.621C207.484 116.24 188.781 105.555 188.781 105.555C179.99 100.721 170.741 98.4311 160 98.4311V221.569C194.003 221.569 221.569 194.003 221.569 160V160Z" fill="#EEE1DC"/>
<path d="M160 188.982C176.006 188.982 188.982 176.006 188.982 160C188.982 143.994 176.006 131.018 160 131.018C143.994 131.018 131.018 143.994 131.018 160C131.018 176.006 143.994 188.982 160 188.982Z" fill="#2E7D32"/>
<path d="M188.982 160C188.982 143.994 176.006 131.018 160 131.018V188.982C176.006 188.982 188.982 176.006 188.982 160V160Z" fill="#004D40"/>
<path d="M158.828 167.712C157.323 167.712 155.819 167.135 154.674 165.983C152.394 163.689 152.407 159.981 154.701 157.701L226.975 85.9018C229.27 83.6226 232.978 83.6352 235.257 85.9289C237.536 88.2234 237.524 91.9317 235.23 94.211L162.956 166.01C161.813 167.145 160.321 167.712 158.828 167.712V167.712Z" fill="#00337A"/>
<path d="M234.724 82.8658L229.388 67.4587C228.505 64.9104 225.261 64.1645 223.354 66.0712L193.07 96.3554C192.191 97.2342 191.82 98.4993 192.083 99.7135L196.53 120.179C196.82 121.515 197.832 122.577 199.152 122.931L220.18 128.574C221.441 128.913 222.787 128.552 223.71 127.629L253.554 97.7849C255.376 95.9636 254.79 92.8802 252.428 91.853L236.718 85.02C235.781 84.6126 235.058 83.8314 234.724 82.8658Z" fill="#ED5C90"/>
<path d="M235.257 85.929C235.213 85.884 235.164 85.8458 235.118 85.8028L154.812 166.109C155.939 167.174 157.382 167.712 158.828 167.712C160.32 167.712 161.813 167.145 162.955 166.011L235.23 94.2114C237.524 91.9318 237.537 88.2238 235.257 85.929V85.929Z" fill="#002659"/>
<path d="M252.429 92.3484L236.718 85.5154C236.413 85.3826 236.132 85.206 235.878 85L198 122.878C198.345 123.122 198.731 123.314 199.153 123.427L220.181 129.07C221.442 129.408 222.787 129.048 223.71 128.125L253.555 98.2803C255.376 96.459 254.791 93.3756 252.429 92.3484Z" fill="#C9164B"/>
</svg>
